# xmcd
#
# Track frame offsets: 
#        182
#        22722
#        46542
#        70417
#        91082
#        118265
#        139815
#        162930
#        181480
#        208185
#
# Disc length: 3137 seconds
#
# Revision: 2
# Processed by: cddbd v1.5.2PL0 Copyright (c) Steve Scherf et al.
# Submitted via: ExactAudioCopy v0.95b4
#
DISCID=820c3f0a
DTITLE=Mayall, John - Chicago Line
DYEAR=1987
DGENRE=Music
TTITLE0=Chicago Line
TTITLE1=Gimme One More Day
TTITLE2=One Life To Live
TTITLE3=The Last Time
TTITLE4=Dream About The Blues
TTITLE5=Fascinatin' Lover
TTITLE6=Cold Blooded Mama
TTITLE7=The Dirty Dozens
TTITLE8=Tears Came Rollin' Down
TTITLE9=Life In The Jungle
EXTD=YEAR: 1988
EXTT0=
EXTT1=
EXTT2=
EXTT3=
EXTT4=
EXTT5=
EXTT6=
EXTT7=
EXTT8=
EXTT9=
PLAYORDER=
